<svg width="45" height="44" viewBox="0 0 45 44" fill="none" xmlns="http://www.w3.org/2000/svg">
<circle cx="22.1323" cy="22" r="21" stroke="#0FD08B" stroke-width="2"/>
<path d="M21.2041 29.243C20.5561 29.243 19.9441 29.117 19.3681 28.865C18.7921 28.613 18.2911 28.256 17.8651 27.794C17.4451 27.332 17.1421 26.786 16.9561 26.156L19.0531 25.589C19.2031 26.105 19.4761 26.504 19.8721 26.786C20.2741 27.062 20.7151 27.197 21.1951 27.191C21.6211 27.191 22.0021 27.092 22.3381 26.894C22.6741 26.696 22.9381 26.429 23.1301 26.093C23.3221 25.751 23.4181 25.37 23.4181 24.95C23.4181 24.308 23.2111 23.771 22.7971 23.339C22.3831 22.907 21.8491 22.691 21.1951 22.691C20.9971 22.691 20.8021 22.718 20.6101 22.772C20.4241 22.826 20.2441 22.901 20.0701 22.997L19.0801 21.287L23.4361 17.561L23.6251 18.083H17.4601V16.04H25.4071V18.092L21.9061 21.458L21.8881 20.819C22.6741 20.873 23.3431 21.092 23.8951 21.476C24.4531 21.86 24.8791 22.355 25.1731 22.961C25.4731 23.567 25.6231 24.23 25.6231 24.95C25.6231 25.766 25.4221 26.498 25.0201 27.146C24.6241 27.794 24.0901 28.307 23.4181 28.685C22.7521 29.057 22.0141 29.243 21.2041 29.243Z" fill="#0FD08B"/>
</svg>
