<svg width="45" height="44" viewBox="0 0 45 44" fill="none" xmlns="http://www.w3.org/2000/svg">
<circle cx="22.1323" cy="22" r="21" stroke="#0FD08B" stroke-width="2"/>
<path d="M17.0043 28.982V27.092L22.5483 22.151C22.9803 21.767 23.2803 21.404 23.4483 21.062C23.6163 20.72 23.7003 20.39 23.7003 20.072C23.7003 19.64 23.6073 19.256 23.4213 18.92C23.2353 18.578 22.9773 18.308 22.6473 18.11C22.3233 17.912 21.9483 17.813 21.5223 17.813C21.0723 17.813 20.6733 17.918 20.3253 18.128C19.9833 18.332 19.7163 18.605 19.5243 18.947C19.3323 19.289 19.2423 19.658 19.2543 20.054H17.0223C17.0223 19.19 17.2143 18.437 17.5983 17.795C17.9883 17.153 18.5223 16.655 19.2003 16.301C19.8843 15.947 20.6733 15.77 21.5673 15.77C22.3953 15.77 23.1393 15.956 23.7993 16.328C24.4593 16.694 24.9783 17.204 25.3563 17.858C25.7343 18.506 25.9233 19.253 25.9233 20.099C25.9233 20.717 25.8393 21.236 25.6713 21.656C25.5033 22.076 25.2513 22.463 24.9153 22.817C24.5853 23.171 24.1743 23.564 23.6823 23.996L19.7493 27.479L19.5513 26.939H25.9233V28.982H17.0043Z" fill="#0FD08B"/>
</svg>
